<svg xmlns="http://www.w3.org/2000/svg" width="560" height="320" style="background:#fff;font-family:sans-serif"><line x1="44" x2="516" y1="276.0" y2="276.0" stroke="#ddd"/><text x="6" y="280.0" font-size="11">0%</text><line x1="44" x2="516" y1="218.0" y2="218.0" stroke="#ddd"/><text x="6" y="222.0" font-size="11">20%</text><line x1="44" x2="516" y1="160.0" y2="160.0" stroke="#ddd"/><text x="6" y="164.0" font-size="11">40%</text><line x1="44" x2="516" y1="102.0" y2="102.0" stroke="#ddd"/><text x="6" y="106.0" font-size="11">60%</text><line x1="44" x2="516" y1="44.0" y2="44.0" stroke="#ddd"/><text x="6" y="48.0" font-size="11">80%</text><text x="36.0" y="292" font-size="11">0.5R</text><text x="103.4" y="292" font-size="11">1R</text><text x="170.9" y="292" font-size="11">1.5R</text><text x="238.3" y="292" font-size="11">2R</text><text x="305.7" y="292" font-size="11">2.5R</text><text x="373.1" y="292" font-size="11">3R</text><text x="440.6" y="292" font-size="11">3.5R</text><text x="508.0" y="292" font-size="11">4R</text><text x="330" y="24" font-size="12" fill="#c0392b">H1 events</text><text x="330" y="40" font-size="12" fill="#2471a3">matched controls</text><text x="330" y="56" font-size="12" fill="#777">break-even 1/(1+t)</text><polyline fill="none" stroke="#c0392b" stroke-width="2"  points="44.0,65.1 111.4,114.1 178.9,140.7 246.3,156.1 313.7,168.7 381.1,184.6 448.6,198.4 516.0,208.8"/><polyline fill="none" stroke="#2471a3" stroke-width="2"  points="44.0,85.8 111.4,134.8 178.9,161.7 246.3,178.0 313.7,189.5 381.1,200.2 448.6,207.3 516.0,212.3"/><polyline fill="none" stroke="#777" stroke-width="2" stroke-dasharray="4 3" points="44.0,82.7 111.4,131.0 178.9,160.0 246.3,179.3 313.7,193.1 381.1,203.5 448.6,211.6 516.0,218.0"/></svg>
